<svg height="700pt" preserveAspectRatio="xMidYMid meet" viewBox="0 0 700 700" width="700pt" xmlns="http://www.w3.org/2000/svg"><g transform="matrix(.1 0 0 -.1 0 700)"><path d="m2839 6145c-64-12-137-52-172-94-107-127-94-312 30-421 56-49 144-79 220-74 57 3 144 40 185 79l27 25h1134 1134l204-201c112-110 385-380 607-599l402-398v-946-946l-371-368c-204-202-477-472-607-600l-237-232h-1017-1018l-46 35c-62 48-108 66-172 69-124 7-223-48-288-159-26-45-29-59-29-135 0-73 4-92 27-136 93-178 319-219 477-87l33 28h1099 1098l461 455c254 250 578 570 721 711l259 256v1109 1109l-249 245c-137 135-461 454-720 710l-471 465h-1215l-1215 1-27 26c-68 63-171 92-264 73zm129-184c71-38 67-160-8-205-107-63-235 63-168 164 43 64 106 79 176 41zm209-4671c89-31 101-162 20-214-102-67-227 39-177 151 27 60 91 86 157 63z"/><path d="m2013 5339c-63-24-138-95-167-159-31-69-28-179 7-247 59-116 162-174 295-168 72 4 136 30 194 82l43 39h1346l1346-1 35-35c20-19 189-187 377-373l341-338v-628-627l-192-192c-106-105-276-272-377-372l-184-180h-191c-105 0-723 0-1374 0h-1183l-39 33c-40 34-120 68-173 72-18 2-54-1-82-7-238-48-324-332-151-503 117-115 296-118 419-6l27 25h1453l1452 1 369 365c203 201 423 419 490 486l121 121-1 791v791l-487 483-487 484h-1448l-1447-1-30 21c-62 44-99 57-175 60-56 2-88-2-127-17zm175-171c27-14 62-71 62-103 0-90-101-152-180-112-37 19-70 74-70 118 0 30 7 46 35 73 44 44 94 52 153 24zm-12-3115c50-32 63-115 28-170-30-47-107-63-165-34s-78 124-37 176c40 51 119 64 174 28z"/><path d="m1039 4586c-132-46-211-154-211-288 0-116 62-211 174-270 34-17 60-22 123-22 90-1 145 19 206 72l35 30 524 1h523l399-397 398-397h474 475l28-27c15-15 54-39 86-53 50-23 69-27 130-23 313 16 402 426 122 563-116 56-250 34-349-57-18-17-50-18-411-18h-391l-205 200-204 200h893 893l143-142 144-143v-303l-1-304-144-142-144-142-958 1h-958l-329 322c-181 177-362 353-402 392l-74 71h-745-745l-36 31c-90 79-236 96-341 40-44-24-103-85-129-135-37-71-38-188-2-259 92-182 314-223 481-90l35 28 662-1h662l201-200 200-200h-479l-479 1-52 47c-155 139-391 91-477-97-127-277 210-544 455-361l35 26h1820 1821l125 121c69 67 186 181 260 254l135 134v465 464l-260 256-260 256h-65c-36 0-834 1-1774 1h-1709l-36 31c-75 66-205 94-292 64zm175-188c46-40 58-96 32-146-38-73-135-89-193-32s-49 148 19 190c50 30 97 26 142-12zm-839-772c79-52 76-169-6-212-57-29-137-5-166 49-19 38-13 110 13 139 41 45 110 56 159 24zm4084-2c111-65 46-239-83-220-126 19-148 182-32 231 37 16 76 12 115-11zm-3337-764c83-39 78-174-8-215-18-8-41-15-52-15-55 0-121 52-123 98-1 12-2 28-3 35-2 6 6 28 17 48 32 60 102 80 169 49z"/></g></svg>